# xmcd
#
# Track frame offsets:
#	150
#	20337
#	41475
#	62195
#	79322
#	107627
#	120700
#	141092
#	165085
#	191765
#	205695
#	235380
#	264190
#
# Disc length: 4084 seconds
#
# Revision: 0
# Processed by: cddbd v1.5PL3 Copyright (c) Steve Scherf et al.
# Submitted via: audiograbber 1.82.02
#
DISCID=a90ff20d
DTITLE=Anne McCue - Roll
DYEAR=2004
DGENRE=
TTITLE0=I Want You Back
TTITLE1=Nobody's Sleeping
TTITLE2=Stupid
TTITLE3=Crazy Beautiful Child
TTITLE4=Hangman
TTITLE5=50 Dollar Whore
TTITLE6=Tiny Little Song
TTITLE7=Milkman's Daughter
TTITLE8=Roll
TTITLE9=Gandhi
TTITLE10=Where the Darkness Grows
TTITLE11=Ballad of an Outlaw Woman
TTITLE12=Machine Gun
EXTD=
EXTT0=
EXTT1=
EXTT2=
EXTT3=
EXTT4=
EXTT5=
EXTT6=
EXTT7=
EXTT8=
EXTT9=
EXTT10=
EXTT11=
EXTT12=
PLAYORDER=
